{
	"asset":{
		"generator":"Khronos glTF Blender I/O v3.6.27",
		"version":"2.0"
	},
	"scene":0,
	"scenes":[
		{
			"name":"Scene",
			"nodes":[
				0
			]
		}
	],
	"nodes":[
		{
			"mesh":0,
			"name":"Trace",
			"rotation":[
				0.7071068286895752,
				0,
				0,
				0.7071068286895752
			]
		}
	],
	"animations":[
		{
			"channels":[
				{
					"sampler":0,
					"target":{
						"node":0,
						"path":"translation"
					}
				},
				{
					"sampler":1,
					"target":{
						"node":0,
						"path":"rotation"
					}
				},
				{
					"sampler":2,
					"target":{
						"node":0,
						"path":"scale"
					}
				}
			],
			"name":"TraceAction",
			"samplers":[
				{
					"input":12,
					"interpolation":"STEP",
					"output":13
				},
				{
					"input":14,
					"interpolation":"LINEAR",
					"output":15
				},
				{
					"input":12,
					"interpolation":"STEP",
					"output":16
				}
			]
		}
	],
	"materials":[
		{
			"doubleSided":true,
			"name":"Material.001",
			"pbrMetallicRoughness":{
				"baseColorFactor":[
					0.07356297224760056,
					0.27383098006248474,
					0.0329660028219223,
					1
				],
				"metallicFactor":0,
				"roughnessFactor":0.5
			}
		},
		{
			"doubleSided":true,
			"name":"Material.002",
			"pbrMetallicRoughness":{
				"baseColorFactor":[
					0,
					0,
					0,
					1
				],
				"metallicFactor":0,
				"roughnessFactor":0.5
			}
		},
		{
			"doubleSided":true,
			"name":"Material.003",
			"pbrMetallicRoughness":{
				"metallicFactor":0,
				"roughnessFactor":0.5
			}
		}
	],
	"meshes":[
		{
			"name":"Trace.001",
			"primitives":[
				{
					"attributes":{
						"POSITION":0,
						"NORMAL":1,
						"TEXCOORD_0":2
					},
					"indices":3,
					"material":0
				},
				{
					"attributes":{
						"POSITION":4,
						"NORMAL":5,
						"TEXCOORD_0":6
					},
					"indices":7,
					"material":1
				},
				{
					"attributes":{
						"POSITION":8,
						"NORMAL":9,
						"TEXCOORD_0":10
					},
					"indices":11,
					"material":2
				}
			]
		}
	],
	"accessors":[
		{
			"bufferView":0,
			"componentType":5126,
			"count":2328,
			"max":[
				0.356497585773468,
				0.059999994933605194,
				-1.1155292987823486
			],
			"min":[
				-1.3164832592010498,
				-0.059999994933605194,
				-2.456745147705078
			],
			"type":"VEC3"
		},
		{
			"bufferView":1,
			"componentType":5126,
			"count":2328,
			"type":"VEC3"
		},
		{
			"bufferView":2,
			"componentType":5126,
			"count":2328,
			"type":"VEC2"
		},
		{
			"bufferView":3,
			"componentType":5123,
			"count":6888,
			"type":"SCALAR"
		},
		{
			"bufferView":4,
			"componentType":5126,
			"count":6086,
			"max":[
				1.490275263786316,
				0.059999994933605194,
				1.647545576095581
			],
			"min":[
				-1.438097596168518,
				-0.059999994933605194,
				-1.2350515127182007
			],
			"type":"VEC3"
		},
		{
			"bufferView":5,
			"componentType":5126,
			"count":6086,
			"type":"VEC3"
		},
		{
			"bufferView":6,
			"componentType":5126,
			"count":6086,
			"type":"VEC2"
		},
		{
			"bufferView":7,
			"componentType":5123,
			"count":17952,
			"type":"SCALAR"
		},
		{
			"bufferView":8,
			"componentType":5126,
			"count":90,
			"max":[
				1.462958812713623,
				-0.0009759478271007538,
				1.6170393228530884
			],
			"min":[
				-1.3972269296646118,
				-0.0009761126711964607,
				-1.272627353668213
			],
			"type":"VEC3"
		},
		{
			"bufferView":9,
			"componentType":5126,
			"count":90,
			"type":"VEC3"
		},
		{
			"bufferView":10,
			"componentType":5126,
			"count":90,
			"type":"VEC2"
		},
		{
			"bufferView":11,
			"componentType":5123,
			"count":354,
			"type":"SCALAR"
		},
		{
			"bufferView":12,
			"componentType":5126,
			"count":2,
			"max":[
				8.333333333333334
			],
			"min":[
				0
			],
			"type":"SCALAR"
		},
		{
			"bufferView":13,
			"componentType":5126,
			"count":2,
			"type":"VEC3"
		},
		{
			"bufferView":14,
			"componentType":5126,
			"count":201,
			"max":[
				8.333333333333334
			],
			"min":[
				0
			],
			"type":"SCALAR"
		},
		{
			"bufferView":15,
			"componentType":5126,
			"count":201,
			"type":"VEC4"
		},
		{
			"bufferView":16,
			"componentType":5126,
			"count":2,
			"type":"VEC3"
		}
	],
	"bufferViews":[
		{
			"buffer":0,
			"byteLength":27936,
			"byteOffset":0,
			"target":34962
		},
		{
			"buffer":0,
			"byteLength":27936,
			"byteOffset":27936,
			"target":34962
		},
		{
			"buffer":0,
			"byteLength":18624,
			"byteOffset":55872,
			"target":34962
		},
		{
			"buffer":0,
			"byteLength":13776,
			"byteOffset":74496,
			"target":34963
		},
		{
			"buffer":0,
			"byteLength":73032,
			"byteOffset":88272,
			"target":34962
		},
		{
			"buffer":0,
			"byteLength":73032,
			"byteOffset":161304,
			"target":34962
		},
		{
			"buffer":0,
			"byteLength":48688,
			"byteOffset":234336,
			"target":34962
		},
		{
			"buffer":0,
			"byteLength":35904,
			"byteOffset":283024,
			"target":34963
		},
		{
			"buffer":0,
			"byteLength":1080,
			"byteOffset":318928,
			"target":34962
		},
		{
			"buffer":0,
			"byteLength":1080,
			"byteOffset":320008,
			"target":34962
		},
		{
			"buffer":0,
			"byteLength":720,
			"byteOffset":321088,
			"target":34962
		},
		{
			"buffer":0,
			"byteLength":708,
			"byteOffset":321808,
			"target":34963
		},
		{
			"buffer":0,
			"byteLength":8,
			"byteOffset":322516
		},
		{
			"buffer":0,
			"byteLength":24,
			"byteOffset":322524
		},
		{
			"buffer":0,
			"byteLength":804,
			"byteOffset":322548
		},
		{
			"buffer":0,
			"byteLength":3216,
			"byteOffset":323352
		},
		{
			"buffer":0,
			"byteLength":24,
			"byteOffset":326568
		}
	],
	"buffers":[
		{
			"byteLength":326592,
			"uri":"data:application/octet-stream;base64,"
		}
	]
}
